<?xml version="1.0" standalone="no"?>
<!DOCTYPE svg PUBLIC "-//W3C//DTD SVG 20010904//EN"
 "http://www.w3.org/TR/2001/REC-SVG-20010904/DTD/svg10.dtd">
<svg version="1.0" xmlns="http://www.w3.org/2000/svg"
 width="1764.000000pt" height="357.000000pt" viewBox="0 0 1764.000000 357.000000"
 preserveAspectRatio="xMidYMid meet">
<metadata>
Created by potrace 1.15, written by Peter Selinger 2001-2017
</metadata>
<g transform="translate(0.000000,357.000000) scale(0.100000,-0.100000)"
fill="#000000" stroke="none">
<path d="M3320 3455 c-19 -9 -55 -35 -80 -59 -41 -40 -52 -44 -125 -56 -111
-17 -328 -72 -460 -115 -465 -155 -892 -394 -1280 -719 -35 -29 -57 -36 -170
-59 -71 -14 -229 -46 -350 -72 -121 -25 -350 -73 -510 -105 -160 -33 -299 -64
-310 -70 -18 -8 -17 -9 5 -5 14 3 72 12 130 20 473 69 870 127 949 140 51 9
95 14 97 13 2 -2 -20 -29 -49 -60 l-52 -57 -90 -15 c-150 -24 -448 -76 -474
-82 -49 -11 -11 -14 60 -5 41 6 101 13 134 16 33 3 116 12 185 19 69 8 126 13
128 11 2 -2 -20 -32 -48 -67 -81 -99 -208 -295 -255 -393 -82 -172 -115 -310
-115 -480 0 -518 481 -917 1188 -986 l123 -12 21 -38 c75 -134 265 -128 408
13 49 49 61 56 110 62 76 10 215 42 335 77 400 119 777 314 1125 583 145 112
419 387 516 518 412 556 447 1182 87 1558 -78 83 -180 158 -278 207 -169 85
-437 143 -664 143 l-83 0 -37 41 c-32 36 -43 42 -86 45 -32 3 -63 -1 -85 -11z
m320 -190 c371 -53 608 -199 725 -447 51 -108 67 -178 72 -318 15 -388 -172
-789 -552 -1179 -342 -352 -751 -606 -1215 -755 -200 -64 -196 -64 -213 -24
-21 49 -77 94 -134 106 -117 25 -260 -47 -330 -165 l-25 -43 -106 0 c-293 0
-592 100 -776 260 -128 110 -216 250 -256 404 -25 98 -27 258 -4 377 40 213
179 472 391 728 4 5 152 22 478 55 138 14 267 28 288 32 44 7 46 0 9 -43 l-27
-32 -385 -61 c-365 -58 -475 -80 -330 -66 147 14 653 47 657 42 2 -2 -3 -18
-11 -35 -18 -35 4 -29 -301 -71 -330 -45 -332 -49 -22 -42 152 3 277 3 277 1
0 -3 -13 -41 -29 -86 -83 -227 -77 -419 18 -557 119 -173 380 -265 628 -222
298 52 545 215 718 475 61 92 155 278 155 309 0 8 -22 12 -77 11 l-78 0 -47
-97 c-77 -159 -182 -270 -356 -375 -192 -116 -343 -128 -440 -34 -55 52 -62
75 -62 196 0 119 15 214 53 333 l24 76 -61 8 -61 8 70 7 c39 4 131 12 205 18
74 7 158 14 185 16 28 3 187 16 355 30 168 14 324 28 347 31 l41 5 7 72 c4 40
13 128 21 197 20 182 18 245 -10 305 -42 91 -148 167 -279 202 -85 23 -250 22
-347 -1 -99 -24 -260 -102 -335 -164 l-60 -49 -445 -92 c-245 -51 -452 -94
-460 -97 -21 -7 42 45 176 146 394 297 913 525 1344 589 41 7 87 14 103 16 25
4 27 2 27 -31 0 -27 8 -44 33 -69 61 -61 149 -56 229 15 25 21 51 53 58 70 14
35 5 34 140 15z m-615 -449 c45 -45 43 -62 -32 -356 l-69 -275 -232 -3 c-128
-1 -232 0 -232 2 0 3 24 68 54 145 62 162 134 285 225 382 89 96 141 126 224
128 28 1 45 -6 62 -23z m-845 -313 c-1 -5 -13 -23 -28 -40 l-28 -32 -415 -74
c-227 -41 -416 -72 -418 -70 -3 2 19 27 47 56 l53 53 117 17 c258 36 608 88
617 92 18 7 55 5 55 -2z"/>
<path d="M6800 2545 l0 -905 550 0 550 0 0 120 0 120 -415 0 -415 0 0 785 0
785 -135 0 -135 0 0 -905z"/>
<path d="M11595 3326 c-42 -18 -83 -69 -91 -111 -9 -50 25 -115 75 -143 47
-27 85 -28 131 -3 96 51 108 179 22 240 -38 27 -99 35 -137 17z"/>
<path d="M17032 2993 c2 -14 15 -19 51 -21 l47 -3 0 -120 c0 -112 1 -119 20
-119 19 0 20 7 20 120 l0 120 45 0 c38 0 45 3 45 20 0 19 -7 20 -116 20 -105
0 -115 -2 -112 -17z"/>
<path d="M17290 2871 c0 -134 1 -141 20 -141 19 0 20 7 21 108 l1 107 36 -107
c31 -92 39 -108 58 -108 18 0 26 16 57 103 l36 102 0 -102 c1 -96 2 -103 21
-103 19 0 20 7 20 141 l0 140 -27 -3 c-28 -3 -40 -27 -98 -203 -5 -15 -17 10
-44 90 -37 107 -38 110 -69 113 l-32 3 0 -140z"/>
<path d="M5850 2845 c-80 -20 -127 -42 -198 -92 -278 -197 -311 -687 -65 -954
70 -75 124 -113 208 -144 183 -69 463 -41 636 64 l60 36 2 113 c1 61 0 112 -2
112 -3 0 -50 -22 -105 -49 -121 -59 -205 -81 -312 -81 -136 0 -234 36 -307
114 -37 39 -84 138 -93 194 l-7 42 421 0 c232 0 423 4 426 8 10 16 -15 207
-35 277 -58 195 -179 318 -355 360 -74 18 -202 18 -274 0z m241 -211 c96 -28
179 -142 179 -245 l0 -29 -300 0 c-165 0 -300 4 -300 8 0 4 9 35 21 69 21 63
68 126 120 164 66 47 185 61 280 33z"/>
<path d="M9905 2837 c-63 -24 -166 -89 -199 -126 -11 -11 -23 -21 -28 -21 -4
0 -8 32 -8 70 l0 70 -120 0 -120 0 0 -595 0 -595 120 0 120 0 0 434 0 433 50
47 c75 70 143 98 235 97 85 -1 128 -16 167 -57 63 -67 63 -68 66 -531 l3 -423
120 0 119 0 0 434 0 435 58 47 c83 69 151 97 225 95 75 -2 149 -39 184 -92 50
-76 53 -103 53 -526 l0 -394 123 3 122 3 0 415 c0 451 -3 478 -60 590 -100
198 -335 267 -545 160 -49 -25 -175 -123 -190 -149 -9 -14 -13 -12 -32 14 -55
73 -95 108 -165 142 -64 32 -86 37 -156 40 -67 3 -93 -1 -142 -20z"/>
<path d="M12578 2837 c-74 -26 -165 -83 -203 -129 l-25 -30 0 76 0 76 -125 0
-125 0 0 -595 0 -595 125 0 125 0 0 429 0 429 42 42 c101 101 203 141 306 119
47 -9 65 -20 103 -58 77 -76 79 -89 79 -558 l0 -403 126 0 125 0 -4 428 c-4
456 -7 483 -59 586 -34 67 -125 150 -193 176 -90 35 -210 38 -297 7z"/>
<path d="M13880 2845 c-135 -31 -268 -108 -349 -202 -51 -59 -104 -158 -127
-238 -23 -79 -23 -237 1 -325 66 -253 276 -430 540 -458 356 -38 654 159 721
478 19 89 14 258 -10 333 -56 175 -190 313 -371 380 -126 47 -285 60 -405 32z
m313 -235 c80 -30 165 -111 203 -192 27 -58 29 -72 29 -178 0 -96 -4 -124 -23
-172 -84 -209 -362 -299 -574 -186 -71 38 -112 82 -149 163 -54 114 -57 276
-8 380 44 94 138 174 238 202 68 19 212 11 284 -17z"/>
<path d="M16494 2841 c-164 -47 -245 -145 -247 -301 -3 -157 69 -233 402 -426
147 -86 179 -130 144 -201 -12 -26 -32 -45 -63 -61 -90 -47 -257 -12 -423 88
-36 22 -69 40 -72 40 -3 0 -4 -57 -3 -127 l3 -126 45 -24 c75 -38 193 -72 288
-81 223 -23 389 52 460 207 35 74 37 185 5 246 -42 81 -142 163 -367 300 -111
68 -176 131 -176 171 0 51 82 104 161 104 70 0 222 -53 313 -110 l36 -22 0
122 0 121 -62 29 c-144 67 -318 87 -444 51z"/>
<path d="M8080 2443 c1 -421 8 -497 53 -597 55 -119 172 -206 301 -224 126
-17 244 19 364 111 l62 48 0 -71 0 -70 120 0 120 0 0 595 0 595 -120 0 -120 0
0 -429 0 -428 -53 -50 c-74 -70 -127 -95 -212 -101 -121 -8 -192 26 -238 112
-22 40 -22 50 -25 469 l-3 427 -124 0 -125 0 0 -387z"/>
<path d="M11522 2238 l3 -593 123 -3 122 -3 0 596 0 595 -125 0 -125 0 2 -592z"/>
<path d="M14940 2414 c0 -458 3 -485 62 -597 122 -229 426 -266 654 -81 l54
44 0 -70 0 -70 125 0 125 0 0 595 0 595 -125 0 -125 0 0 -429 0 -429 -46 -47
c-68 -67 -133 -97 -224 -103 -150 -9 -233 57 -255 203 -1 6 -3 189 -3 408 l-2
397 -120 0 -120 0 0 -416z"/>
<path d="M6693 1102 c-100 -36 -180 -109 -225 -208 -33 -70 -32 -224 1 -306
31 -81 105 -158 183 -194 58 -27 72 -29 183 -29 111 0 124 2 176 27 30 15 75
46 99 68 37 34 41 42 30 55 -31 38 -49 38 -91 1 -64 -55 -105 -70 -196 -74
-134 -6 -228 40 -288 141 -66 115 -42 295 53 378 62 55 127 79 213 79 95 0
155 -20 213 -71 47 -42 64 -43 96 -4 11 13 7 21 -28 54 -22 21 -67 52 -99 67
-50 24 -72 28 -163 31 -83 3 -116 0 -157 -15z"/>
<path d="M8939 1101 c-117 -46 -200 -140 -234 -266 -48 -175 38 -361 203 -442
48 -23 72 -29 152 -31 132 -5 191 18 281 107 84 84 112 150 113 266 0 44 -5
99 -12 122 -31 104 -143 218 -245 248 -70 21 -200 19 -258 -4z m269 -92 c70
-35 105 -71 140 -148 21 -46 24 -64 20 -135 -3 -66 -10 -91 -33 -135 -57 -103
-142 -151 -270 -151 -88 0 -156 31 -214 96 -50 57 -71 119 -71 210 0 62 5 81
33 135 22 44 48 75 81 100 61 46 93 57 182 58 60 1 80 -4 132 -30z"/>
<path d="M10269 1101 c-117 -46 -200 -140 -234 -266 -48 -175 38 -361 203
-442 48 -23 72 -29 152 -31 132 -5 191 18 281 107 84 84 112 150 113 266 0 44
-5 99 -12 122 -31 104 -143 218 -245 248 -70 21 -200 19 -258 -4z m269 -92
c70 -35 105 -71 140 -148 21 -46 24 -64 20 -135 -3 -66 -10 -91 -33 -135 -57
-103 -142 -151 -270 -151 -88 0 -156 31 -214 96 -50 57 -71 119 -71 210 0 62
5 81 33 135 22 44 48 75 81 100 61 46 93 57 182 58 60 1 80 -4 132 -30z"/>
<path d="M11148 1101 c-71 -28 -113 -57 -162 -112 -168 -186 -101 -488 133
-598 51 -24 67 -26 181 -26 117 0 128 2 177 27 100 53 161 138 182 253 6 32
11 65 11 72 0 10 -34 13 -160 13 l-160 0 0 -40 0 -40 111 0 112 0 -7 -32 c-14
-72 -107 -160 -183 -174 -19 -4 -69 -4 -112 -2 -163 9 -277 120 -289 279 -9
130 57 239 179 294 56 25 70 27 148 23 92 -5 154 -28 219 -82 37 -32 43 -32
72 -1 l24 25 -30 31 c-16 17 -63 47 -103 67 -71 35 -81 37 -185 40 -90 2 -120
-1 -158 -17z"/>
<path d="M12614 1095 c-77 -46 -101 -150 -54 -233 13 -23 51 -63 84 -89 174
-136 211 -195 172 -272 -32 -62 -117 -80 -182 -40 -19 11 -34 24 -34 27 -1 4
-11 20 -24 35 -23 28 -24 29 -55 13 -36 -19 -37 -23 -14 -56 57 -87 115 -120
206 -120 56 0 71 4 113 32 59 41 89 95 89 163 -1 89 -47 153 -190 261 -106 79
-131 138 -84 198 17 22 28 26 71 26 47 0 54 -4 89 -40 21 -22 42 -40 46 -40
12 1 53 37 53 48 0 17 -73 84 -106 98 -54 23 -132 18 -180 -11z"/>
<path d="M5440 1065 l0 -35 80 0 80 0 0 -325 0 -325 40 0 40 0 0 325 0 325 85
0 85 0 0 35 0 35 -205 0 -205 0 0 -35z"/>
<path d="M5940 740 l0 -360 210 0 210 0 0 35 0 35 -170 0 -170 0 0 140 0 140
170 0 170 0 0 35 0 35 -170 0 -170 0 0 115 0 115 170 0 170 0 0 35 0 35 -210
0 -210 0 0 -360z"/>
<path d="M7290 740 l0 -360 40 0 40 0 0 175 0 175 180 0 180 0 0 -175 0 -175
40 0 40 0 0 360 0 360 -40 0 -40 0 0 -150 0 -150 -180 0 -180 0 0 150 0 150
-40 0 -40 0 0 -360z"/>
<path d="M7970 741 l0 -361 45 0 45 0 2 261 3 261 225 -260 c129 -150 232
-261 243 -261 16 -1 17 23 17 359 l0 360 -40 0 -40 0 -2 -268 -3 -268 -230
266 c-127 145 -238 266 -248 268 -16 3 -17 -22 -17 -357z"/>
<path d="M9590 740 l0 -360 180 0 180 0 0 35 0 35 -140 0 -140 0 0 325 0 325
-40 0 -40 0 0 -360z"/>
<path d="M11790 740 l0 -360 40 0 40 0 0 360 0 360 -40 0 -40 0 0 -360z"/>
<path d="M12030 740 l0 -360 210 0 210 0 0 35 0 35 -170 0 -170 0 0 140 0 140
170 0 170 0 0 35 0 35 -170 0 -170 0 0 115 0 115 170 0 170 0 0 35 0 35 -210
0 -210 0 0 -360z"/>
<path d="M13490 730 l0 -360 40 0 40 0 0 170 0 170 113 0 c104 0 118 2 168 28
42 21 59 37 77 72 40 80 19 193 -44 237 -52 36 -93 43 -245 43 l-149 0 0 -360z
m322 264 c17 -9 36 -31 45 -52 13 -32 14 -42 2 -77 -21 -59 -58 -76 -184 -83
l-105 -5 0 123 0 123 106 -7 c63 -4 119 -13 136 -22z"/>
<path d="M14032 1081 c2 -4 71 -166 153 -360 105 -246 154 -351 164 -349 12 2
318 682 320 711 1 4 -18 7 -42 7 l-42 0 -115 -266 c-63 -146 -117 -267 -120
-269 -3 -1 -57 118 -120 266 l-115 269 -43 0 c-24 0 -42 -4 -40 -9z"/>
<path d="M14710 1055 l0 -35 80 0 80 0 0 -325 0 -325 40 0 40 0 0 325 0 325
85 0 85 0 0 35 0 35 -205 0 -205 0 0 -35z"/>
<path d="M15490 730 l0 -360 180 0 180 0 0 35 0 35 -140 0 -140 0 0 325 0 325
-40 0 -40 0 0 -360z"/>
<path d="M15880 1055 l0 -35 80 0 80 0 0 -325 0 -325 40 0 40 0 0 325 0 325
85 0 85 0 0 35 0 35 -205 0 -205 0 0 -35z"/>
<path d="M16380 730 l0 -362 193 4 c176 3 196 5 238 26 95 46 158 136 179 252
32 175 -46 339 -192 406 -61 28 -70 29 -240 32 l-178 4 0 -362z m282 275 c72
-6 113 -23 163 -66 57 -51 85 -118 85 -209 0 -110 -13 -147 -74 -206 -62 -60
-94 -70 -263 -79 l-113 -5 0 290 0 290 73 -5 c39 -3 98 -8 129 -10z"/>
</g>
</svg>
